<?xml version="1.0" standalone="no"?>
<!DOCTYPE svg PUBLIC "-//W3C//DTD SVG 20010904//EN"
 "http://www.w3.org/TR/2001/REC-SVG-20010904/DTD/svg10.dtd">
<svg version="1.0" xmlns="http://www.w3.org/2000/svg"
 width="500.000000pt" height="500.000000pt" viewBox="0 0 500.000000 500.000000"
 preserveAspectRatio="xMidYMid meet">
<metadata>
Created by potrace 1.11, written by Peter Selinger 2001-2013
</metadata>
<g transform="translate(0.000000,500.000000) scale(0.100000,-0.100000)"
fill="#000000" stroke="none">
<path d="M2415 4824 c-112 -14 -307 -64 -363 -93 -20 -10 -98 -44 -172 -76
-163 -68 -225 -103 -305 -170 -33 -27 -87 -68 -119 -90 -66 -44 -207 -178
-253 -240 -45 -61 -153 -243 -180 -304 -13 -30 -33 -93 -44 -140 -11 -47 -26
-102 -34 -121 -8 -19 -16 -57 -19 -85 -3 -27 -7 -75 -10 -105 -5 -50 -5 -52 5
-20 19 61 28 80 40 80 12 0 10 -20 -11 -120 -9 -41 -9 -55 0 -58 7 -3 6 -10
-5 -22 -12 -13 -14 -23 -7 -37 11 -21 5 -46 -10 -37 -16 10 0 -130 23 -204 11
-34 22 -83 26 -108 4 -34 11 -48 27 -54 27 -10 52 -38 66 -74 12 -32 6 -46
-12 -28 -35 35 -98 -10 -98 -69 0 -130 113 -529 150 -529 5 0 1 15 -10 33 -34
58 -48 146 -53 333 -5 144 -3 186 8 200 16 22 14 24 51 -41 22 -38 28 -62 29
-107 0 -38 -5 -62 -13 -67 -11 -6 -12 -35 -7 -137 6 -116 9 -131 28 -146 12
-9 25 -14 29 -12 4 3 8 -2 8 -11 0 -9 4 -14 8 -11 5 3 17 -25 27 -61 14 -47
27 -71 47 -86 21 -16 27 -27 24 -50 -2 -17 -10 -36 -20 -42 -19 -15 -21 -25
-3 -25 7 0 21 -6 31 -13 16 -12 17 -17 6 -38 -18 -34 -18 -34 -40 -14 -23 21
-27 14 -4 -9 8 -9 16 -25 17 -37 1 -11 9 -25 19 -30 14 -8 18 -22 18 -67 0
-31 7 -70 15 -86 8 -15 15 -39 15 -52 0 -12 5 -26 10 -29 6 -3 10 -14 10 -23
0 -9 11 -39 25 -67 13 -27 25 -55 25 -61 0 -6 7 -17 15 -24 9 -7 14 -19 11
-27 -3 -7 -2 -13 2 -13 12 0 44 -66 45 -94 1 -14 6 -26 11 -26 5 0 6 -3 3 -6
-3 -4 -2 -15 4 -25 6 -13 6 -19 -1 -19 -23 0 -7 -20 30 -36 40 -18 47 -34 19
-42 -11 -3 -11 -1 -1 5 9 7 2 13 -23 20 -28 9 -35 8 -35 -2 0 -8 5 -17 10 -20
5 -3 10 -15 10 -26 0 -11 -4 -17 -10 -14 -14 9 7 -43 33 -82 12 -18 26 -33 31
-33 6 0 5 5 -2 12 -7 7 -12 16 -12 20 0 14 27 9 41 -8 10 -13 10 -17 0 -24
-10 -6 -10 -9 -1 -15 6 -4 9 -13 6 -20 -3 -8 3 -19 11 -27 14 -11 16 -11 10 4
-4 12 -1 16 14 15 19 -1 28 -27 9 -27 -5 0 -12 -16 -16 -36 -5 -28 -2 -42 16
-67 16 -20 19 -32 12 -35 -19 -6 -14 -57 8 -77 23 -20 26 -14 8 15 -13 20 -4
40 11 24 13 -14 23 -76 11 -69 -14 8 -13 3 6 -33 8 -18 20 -32 25 -32 5 0 9
-7 9 -16 0 -10 6 -14 15 -10 15 5 50 -22 40 -32 -3 -4 -10 0 -15 8 -6 8 -10
11 -10 6 0 -4 13 -24 30 -43 16 -18 30 -30 30 -25 0 5 -7 15 -15 22 -8 7 -12
17 -8 22 3 6 18 -3 34 -22 16 -18 29 -26 29 -19 0 8 8 4 19 -11 11 -13 36 -29
58 -35 30 -8 39 -16 41 -37 2 -20 9 -25 28 -25 13 0 24 5 24 13 0 7 6 11 14 8
8 -3 17 -1 21 5 8 14 57 3 68 -16 11 -18 41 -17 33 2 -9 25 19 17 49 -15 30
-31 50 -31 40 0 -4 14 1 20 25 25 16 4 35 15 40 25 13 25 13 30 -4 24 -21 -8
-49 25 -35 42 6 7 15 12 19 11 10 -3 11 8 3 29 -5 13 -8 13 -15 2 -8 -10 -9
-10 -5 2 2 8 10 15 18 16 31 2 37 5 65 29 16 14 38 25 48 25 24 0 18 -7 -26
-28 -22 -11 -33 -25 -34 -39 -1 -13 0 -23 1 -23 11 0 60 32 61 40 3 23 5 24
14 10 8 -13 10 -12 10 3 0 12 8 17 26 17 14 0 23 4 19 10 -6 10 -5 11 32 15
13 1 28 7 35 12 7 5 33 15 58 22 25 7 53 17 62 22 10 5 24 6 33 3 8 -3 15 -1
15 5 0 6 7 11 16 11 8 0 12 -4 9 -10 -8 -14 27 0 40 15 6 7 27 21 47 32 21 11
35 23 31 27 -3 3 2 6 12 6 10 0 27 10 39 23 12 12 33 31 47 43 13 11 38 36 56
55 18 19 38 39 45 45 7 6 21 20 30 30 10 11 26 28 37 38 11 10 18 23 15 28 -3
5 0 9 7 7 8 -1 21 -1 29 0 12 1 12 3 2 9 -9 6 -4 18 22 45 18 20 36 33 40 30
3 -4 6 -1 6 4 0 6 15 27 34 46 19 20 37 45 41 56 3 12 13 21 21 21 8 0 12 5 9
10 -3 6 2 10 11 10 10 0 14 3 11 6 -9 10 12 46 23 39 5 -3 7 -12 3 -20 -7 -20
17 -19 45 1 18 12 20 19 12 29 -13 16 7 55 27 55 12 0 33 59 33 93 0 9 7 17
15 17 11 0 15 12 15 48 0 26 6 59 14 74 8 14 17 46 21 70 10 62 50 196 71 241
18 37 18 38 -4 53 -18 13 -22 25 -22 75 0 32 4 59 9 59 5 0 18 21 30 48 37 80
67 124 94 139 25 13 32 31 29 76 -1 9 3 17 8 17 13 0 13 77 0 85 -5 3 -10 20
-10 36 0 17 -4 28 -9 25 -5 -3 -12 21 -15 55 -8 66 7 101 58 146 14 12 30 40
36 62 8 29 16 41 29 41 11 0 22 7 25 16 3 9 12 14 20 11 7 -3 18 -1 24 5 8 8
16 7 28 -3 23 -19 33 -49 35 -113 2 -53 3 -55 20 -40 20 18 39 94 39 155 0 22
5 50 11 61 8 16 8 23 -2 30 -11 7 -11 11 -1 15 15 6 17 159 2 248 -15 95 -15
177 0 208 11 22 11 39 2 85 -50 247 -67 307 -125 433 -19 41 -38 90 -42 109
-4 19 -16 49 -26 66 -23 38 -24 51 -4 34 8 -7 15 -8 15 -3 0 17 -59 123 -98
176 -81 109 -238 207 -331 207 -22 0 -41 4 -43 9 -1 5 -21 17 -43 27 -29 14
-41 26 -43 44 -5 35 -18 46 -37 30 -8 -7 -17 -11 -18 -9 -24 33 -37 60 -26 53
18 -11 49 -13 49 -2 0 4 -8 8 -19 8 -10 0 -24 7 -31 16 -23 27 -95 64 -156 80
-32 8 -66 21 -74 29 -9 8 -22 15 -28 15 -17 0 -62 22 -62 31 0 4 17 10 38 12
20 3 3 5 -38 4 -41 0 -82 3 -90 6 -27 11 -240 37 -293 36 -29 -1 -97 -7 -152
-15z m1352 -558 c4 -6 8 -14 8 -18 0 -5 5 -8 10 -9 17 -1 45 -31 45 -48 0 -8
12 -32 26 -53 15 -21 23 -42 19 -46 -4 -4 -10 -1 -12 6 -8 21 -94 134 -137
180 l-41 44 38 -22 c20 -12 40 -27 44 -34z m-1452 -185 c-3 -8 0 -11 9 -8 8 3
22 -3 32 -14 14 -15 19 -17 26 -7 6 10 8 8 6 -4 -2 -9 6 -24 17 -32 20 -15 20
-15 0 -30 -26 -19 -13 -31 15 -14 18 10 24 10 27 1 3 -7 13 -13 23 -13 26 0
43 -36 42 -82 -2 -41 7 -47 32 -22 9 8 25 16 36 17 11 1 20 5 20 9 0 4 7 5 17
1 13 -5 15 -2 11 15 -4 16 -2 19 10 15 10 -4 13 -2 8 5 -4 7 6 18 24 27 16 8
30 12 31 8 0 -5 4 2 9 13 7 18 69 60 75 52 8 -10 12 -77 5 -73 -5 3 -12 -7
-15 -22 -3 -15 -10 -41 -16 -58 -24 -66 -20 -80 8 -31 28 50 58 75 47 39 -3
-10 5 2 18 27 33 66 65 103 71 86 3 -7 23 -18 44 -23 32 -7 40 -15 56 -53 16
-41 17 -42 14 -13 -4 35 6 43 52 43 38 0 71 -26 71 -57 0 -20 4 -24 18 -18 14
5 15 4 5 -6 -17 -17 -16 -30 1 -23 7 3 33 6 57 8 24 1 52 6 62 10 11 5 17 4
17 -4 0 -6 -4 -8 -10 -5 -11 7 -13 -15 -4 -39 3 -9 10 -13 15 -10 5 3 9 1 9
-5 0 -11 -54 -45 -88 -56 -25 -7 -112 41 -112 63 0 6 -8 12 -18 12 -10 0 -29
11 -41 24 -13 14 -29 22 -36 20 -28 -11 48 -109 127 -162 26 -18 51 -32 57
-32 5 0 22 -5 38 -11 31 -13 60 -18 115 -22 47 -4 51 -8 38 -41 -5 -15 -6 -25
-1 -21 13 8 41 -23 35 -39 -3 -9 5 -15 24 -19 27 -6 28 -8 26 -56 -1 -27 -5
-55 -10 -62 -5 -9 -2 -10 10 -6 15 6 17 3 11 -23 -5 -24 -3 -30 10 -30 14 0
16 -6 10 -37 -12 -64 -6 -157 10 -169 11 -8 12 -13 2 -24 -9 -10 -9 -11 1 -6
9 5 12 -4 12 -37 0 -24 9 -78 20 -121 60 -227 82 -436 60 -556 -7 -36 -16
-114 -20 -175 -4 -60 -13 -125 -20 -143 -9 -25 -10 -36 -1 -45 14 -14 15 -67
0 -67 -5 0 -8 4 -5 9 3 4 -1 17 -9 27 -13 18 -14 17 -15 -16 0 -19 -7 -46 -14
-59 -9 -17 -11 -34 -5 -54 4 -16 6 -43 3 -60 -4 -25 -3 -28 5 -17 6 8 11 13
11 10 1 -3 3 -23 5 -45 3 -30 1 -34 -5 -19 -5 12 -13 25 -19 28 -12 8 -27 -14
-15 -23 5 -3 11 -15 12 -25 3 -17 2 -18 -12 -7 -9 8 -16 24 -16 36 0 13 -7 25
-15 29 -10 4 -15 -1 -15 -14 0 -33 22 -69 44 -72 16 -2 22 -11 24 -37 2 -21 0
-31 -7 -26 -7 4 -11 -5 -11 -24 0 -36 7 -40 19 -9 8 21 8 21 13 -5 4 -19 1
-27 -8 -27 -16 0 -19 -16 -4 -25 13 -8 2 -57 -17 -72 -10 -8 -11 -13 -3 -18 9
-6 9 -10 -1 -16 -8 -5 -16 -3 -21 4 -11 18 -58 17 -58 -2 0 -11 -3 -12 -11 -4
-10 10 -2 30 28 72 1 2 13 -3 27 -12 29 -20 36 -14 35 32 l-1 36 -11 -27 c-16
-40 -27 -34 -27 14 0 33 -3 39 -12 30 -18 -18 -31 -15 -24 5 7 17 -20 81 -39
95 -16 12 -23 9 -20 -9 1 -10 7 -17 12 -16 5 1 7 -13 5 -31 -3 -26 2 -37 21
-52 19 -16 21 -22 11 -31 -6 -7 -11 -26 -10 -43 1 -18 -2 -29 -8 -27 -6 3 -19
-2 -28 -10 -15 -14 -18 -12 -31 20 -8 19 -20 38 -26 41 -6 4 -11 15 -11 24 0
13 6 10 25 -12 14 -16 25 -23 25 -16 0 7 7 10 16 6 28 -11 35 5 14 34 -11 15
-20 37 -20 49 0 14 -5 19 -15 15 -9 -4 -15 0 -15 10 0 13 -4 14 -24 5 -13 -6
-29 -21 -34 -33 l-11 -21 0 22 c-1 21 -21 44 -21 24 0 -6 -7 -8 -16 -4 -14 5
-16 2 -10 -22 7 -26 6 -27 -11 -9 -17 17 -18 17 -21 -4 -2 -12 -8 -22 -14 -22
-7 0 -7 -4 1 -13 6 -8 8 -17 4 -20 -3 -4 -1 -13 5 -20 7 -8 9 -17 5 -20 -13
-14 -23 -6 -23 16 0 13 -10 32 -21 43 l-22 19 15 -30 c25 -49 30 -98 13 -120
-8 -11 -15 -15 -14 -10 1 6 1 26 0 45 -1 34 -2 34 -14 11 -15 -30 -31 -29 -35
1 -2 13 -8 28 -14 33 -6 7 -8 7 -6 0 1 -5 -5 -21 -14 -35 -24 -33 -43 -15 -28
25 6 16 9 34 6 41 -3 7 0 14 6 16 17 6 19 86 3 95 -7 5 -25 32 -40 61 -30 59
-38 65 -31 21 4 -24 1 -29 -11 -25 -8 3 -19 6 -25 6 -5 0 -8 6 -5 13 2 6 0 24
-4 39 -5 18 -3 28 4 31 7 2 9 8 5 12 -4 4 -14 2 -22 -4 -11 -9 -20 -10 -35 -2
-11 6 -27 11 -36 11 -26 0 -8 -18 25 -25 17 -4 30 -11 30 -16 0 -6 -5 -7 -11
-3 -8 4 -9 0 -4 -15 7 -24 -19 -31 -28 -7 -3 8 -18 16 -34 18 -18 2 -27 8 -25
17 3 15 -15 31 -36 31 -7 0 -10 -4 -7 -10 3 -5 1 -10 -4 -10 -6 0 -10 10 -8
23 1 16 -3 21 -16 19 -9 -2 -25 2 -35 7 -14 9 -15 10 -1 11 9 0 16 7 16 16 0
10 -7 14 -19 11 -10 -3 -18 -1 -18 4 0 5 -4 9 -9 9 -5 0 -7 -9 -4 -19 4 -16 1
-19 -16 -14 -11 3 -18 9 -15 14 3 5 -1 9 -8 10 -7 0 -23 2 -35 5 -35 6 -37 6
-52 5 -8 -1 -11 -7 -7 -17 5 -14 4 -15 -9 -4 -12 10 -18 10 -30 0 -26 -22
-114 -24 -152 -3 -18 9 -33 22 -33 26 0 5 -7 7 -15 3 -8 -3 -15 -1 -15 3 0 5
-14 7 -31 4 -27 -4 -30 -2 -27 19 2 15 9 22 20 20 43 -7 26 48 -23 73 -44 23
-82 16 -93 -17 -8 -22 -5 -32 18 -58 28 -34 29 -54 1 -26 -22 21 -24 21 -36
-11 -7 -19 -13 -23 -21 -15 -11 11 -41 5 -33 -8 3 -4 -7 -11 -20 -14 -14 -4
-23 -11 -20 -16 10 -16 -24 -24 -40 -10 -10 9 -15 9 -15 1 0 -6 -9 -11 -19
-11 -30 0 -51 -11 -51 -26 0 -7 -11 -16 -25 -20 -14 -3 -25 -10 -25 -15 0 -4
-18 -26 -40 -48 -22 -22 -40 -44 -40 -49 0 -5 -7 -13 -15 -16 -11 -4 -13 -11
-8 -23 4 -10 8 -31 8 -47 0 -24 -5 -31 -28 -37 -31 -8 -43 6 -34 41 3 11 1 20
-4 20 -5 0 -9 5 -9 10 0 6 9 10 20 10 11 0 20 5 20 10 0 6 -6 10 -14 10 -8 0
-17 12 -20 26 -4 15 -10 24 -13 20 -3 -3 -12 -1 -20 5 -7 6 -13 8 -13 5 0 -4
-7 0 -16 9 -11 10 -14 24 -10 41 6 23 4 25 -15 19 -19 -6 -21 -4 -16 16 5 22
5 22 -7 7 -7 -10 -26 -18 -41 -18 -22 0 -26 3 -20 18 19 48 13 65 -14 40 -11
-11 -12 -10 -6 1 6 11 4 13 -8 8 -20 -7 -21 3 -6 37 6 13 17 22 24 20 7 -3 16
0 20 7 8 12 6 11 -65 -5 -10 -2 -14 -13 -12 -31 5 -42 -12 -55 -56 -46 -2 1 5
17 17 36 11 19 16 35 11 35 -6 0 -10 7 -10 15 0 8 -5 15 -12 15 -6 0 -4 8 6
19 18 20 15 61 -5 61 -5 0 -8 5 -7 11 2 6 -3 14 -9 16 -7 3 -13 0 -13 -6 0 -6
-5 -11 -11 -11 -8 0 -10 13 -6 37 4 20 2 55 -2 77 -5 23 -12 83 -16 135 -3 52
-8 98 -11 103 -22 35 10 438 47 600 12 53 18 178 8 172 -10 -6 -2 215 10 275
6 30 16 60 22 68 9 10 8 13 0 13 -8 0 -9 5 -1 19 5 11 10 32 10 48 0 39 24 70
60 78 30 7 100 77 100 102 0 21 -5 16 -36 -32 -16 -26 -39 -48 -52 -52 -31 -7
-33 -4 -17 35 10 23 23 34 43 38 17 4 35 16 43 30 9 18 15 21 21 12 5 -9 8 -6
8 8 0 12 11 33 25 48 14 15 25 30 25 34 0 4 16 20 36 36 29 23 34 25 25 8 -17
-32 -14 -44 10 -37 19 6 20 5 9 -15 -6 -12 -9 -24 -7 -27 8 -7 47 30 47 45 0
7 4 11 10 7 5 -3 16 6 25 19 16 24 64 46 110 51 11 1 23 3 27 4 3 0 4 11 0 24
-5 19 -4 20 11 8 23 -18 54 -7 37 14 -15 18 1 20 18 3 7 -7 12 -8 12 -2 0 6
-5 15 -12 22 -19 19 32 15 54 -5 11 -9 18 -11 18 -5 0 7 6 12 14 12 8 0 17 6
20 13 3 9 8 8 18 -4 10 -13 17 -14 32 -5 14 8 20 8 23 -1 7 -19 21 -16 27 5 7
20 89 47 94 31 2 -5 8 -6 13 -3 6 3 3 11 -7 18 -11 9 -14 19 -10 34 6 18 10
20 27 9 10 -6 17 -18 14 -26z m-141 -34 c-8 -21 -20 -22 -28 -1 -3 8 -2 12 4
9 6 -3 10 2 10 11 0 13 3 15 10 8 6 -6 8 -18 4 -27z m81 23 c3 -5 1 -10 -4
-10 -6 0 -11 5 -11 10 0 6 2 10 4 10 3 0 8 -4 11 -10z m-1057 -160 c-7 -11
-19 -22 -28 -25 -8 -4 -4 5 9 19 29 31 36 33 19 6z m2062 -40 c-20 -13 -43
-13 -35 0 3 6 16 10 28 10 18 0 19 -2 7 -10z m-2170 -184 c0 -3 -4 -8 -10 -11
-5 -3 -10 -1 -10 4 0 6 5 11 10 11 6 0 10 -2 10 -4z m-45 -66 c-10 -11 -20
-18 -23 -15 -7 6 18 35 31 35 5 0 2 -9 -8 -20z m2415 -86 c0 -8 -5 -12 -10 -9
-6 4 -8 11 -5 16 9 14 15 11 15 -7z m-2466 -19 c-4 -8 -11 -12 -16 -9 -6 4 -8
-3 -4 -17 3 -13 3 -19 0 -12 -3 7 -12 9 -21 6 -13 -5 -13 -2 2 20 18 29 48 38
39 12z m159 -220 c-3 -30 -2 -36 6 -25 9 13 11 13 11 -1 0 -29 -30 -89 -45
-89 -8 0 -12 6 -9 13 2 7 0 24 -5 38 -8 21 -10 21 -10 4 -1 -11 -10 -26 -21
-33 -17 -10 -20 -10 -20 6 0 28 21 82 31 82 5 0 9 3 8 8 -3 17 14 51 22 46 5
-3 9 0 9 6 0 7 5 6 14 -2 9 -8 12 -27 9 -53z m197 -23 c0 -5 -12 -19 -27 -33
l-26 -24 19 33 c17 30 34 42 34 24z m-153 -80 c-10 -10 -17 -25 -18 -33 0 -8
-5 -3 -10 10 -6 17 -6 28 1 35 8 8 9 5 5 -9 -5 -18 -4 -17 11 3 9 12 19 20 22
17 3 -3 -2 -13 -11 -23z m173 -1222 c0 -6 -7 -13 -15 -16 -8 -4 -15 -15 -15
-25 0 -10 -4 -19 -9 -19 -5 0 -4 15 2 35 9 32 37 50 37 25z m2200 -105 c0 -6
-6 -12 -12 -12 -7 0 -13 10 -13 23 0 17 3 20 13 12 6 -6 12 -16 12 -23z m21
-57 c0 -13 2 -34 4 -48 4 -34 -14 -68 -26 -49 -5 8 -9 25 -9 39 0 20 2 22 10
10 8 -12 10 -11 10 5 0 11 -7 31 -16 43 -14 21 -14 22 5 22 15 0 21 -7 22 -22z
m-2246 -57 c-4 -13 0 -23 12 -30 20 -12 13 -14 -11 -5 -16 6 -22 35 -9 47 11
12 15 8 8 -12z m1217 -23 c-13 -13 -24 5 -16 27 7 16 8 16 17 0 6 -11 6 -20
-1 -27z m-35 10 c2 -18 0 -20 -7 -8 -12 18 -13 30 -2 30 4 0 9 -10 9 -22z
m-969 -10 c-2 -6 -10 -13 -16 -14 -7 -1 -8 0 -2 3 5 2 8 9 4 14 -3 5 0 9 6 9
7 0 10 -5 8 -12z m-200 -82 c-2 -15 -7 -28 -13 -29 -12 -2 -19 38 -10 60 9 25
27 1 23 -31z m1026 19 c-8 -21 21 -24 62 -7 49 21 100 18 107 -7 4 -18 47 -36
47 -20 0 5 -4 9 -8 9 -5 0 -9 7 -9 16 0 11 9 14 36 12 26 -2 36 -7 35 -20 -1
-9 7 -19 18 -21 15 -4 17 -2 8 8 -8 9 -5 14 12 18 13 2 32 8 42 12 15 7 18 5
14 -7 -4 -8 -2 -21 3 -29 8 -11 9 -10 7 6 -3 21 22 31 50 20 15 -6 15 -8 -3
-15 -17 -8 -18 -9 -2 -11 9 -1 22 -3 27 -4 6 -1 14 -3 18 -4 4 0 7 -13 7 -27
-2 -40 -37 -53 -110 -43 -33 4 -82 11 -110 15 -76 11 -174 9 -227 -3 -30 -6
-46 -7 -45 0 1 5 -5 11 -13 13 -8 1 -26 6 -39 10 -16 5 -22 4 -17 -4 7 -11
-31 -28 -41 -18 -4 3 1 6 11 6 9 0 15 4 12 8 -6 9 -60 8 -86 -1 -8 -3 -42 -8
-75 -12 -33 -3 -79 -8 -103 -11 -27 -4 -48 -2 -57 6 -24 20 -17 28 23 27 42
-1 66 9 56 25 -4 6 3 5 16 -2 18 -9 25 -8 41 6 14 13 19 14 19 4 0 -11 3 -11
12 -2 7 7 27 12 45 12 35 0 83 18 83 31 0 5 12 6 28 3 15 -3 35 1 46 9 22 16
67 11 60 -8z m-746 -7 c15 -15 16 -38 2 -38 -5 0 -9 3 -9 8 1 4 1 14 0 22 -1
12 -5 11 -16 -4 -16 -21 -19 -18 -9 8 7 19 16 20 32 4z m1336 -13 c20 -14 41
-25 46 -25 13 0 13 -27 0 -35 -5 -3 -15 5 -22 19 -6 14 -19 26 -28 26 -9 0
-25 9 -35 20 -25 28 -5 25 39 -5z m333 -87 c-3 -7 -5 -2 -5 12 0 14 2 19 5 13
2 -7 2 -19 0 -25z m-436 -38 c10 -6 19 -17 19 -26 0 -8 7 -17 16 -21 8 -3 13
-12 10 -20 -3 -8 -2 -12 3 -8 12 7 41 -5 41 -17 0 -5 -5 -6 -11 -3 -6 4 -1
-11 10 -34 24 -47 26 -58 8 -43 -24 20 -13 -66 12 -89 25 -24 27 -31 5 -22
-11 4 -15 0 -14 -13 1 -10 2 -32 1 -48 -1 -28 -2 -28 -19 -13 -10 10 -24 17
-30 17 -6 0 -16 9 -22 20 -6 11 -15 20 -21 20 -6 0 -1 -13 11 -30 18 -25 19
-30 6 -30 -15 0 -20 -21 -19 -67 1 -17 -3 -16 -32 3 -15 9 -25 25 -24 38 0 11
3 15 6 9 7 -19 25 -16 21 3 -2 10 -15 18 -32 20 -22 2 -26 0 -17 -9 8 -8 4
-17 -16 -34 -16 -13 -21 -22 -13 -21 8 2 14 -3 12 -10 -1 -7 5 -15 13 -18 8
-4 15 -13 15 -22 0 -13 -3 -12 -20 3 -17 16 -20 16 -26 2 -10 -28 -34 -8 -27
24 4 19 1 29 -6 29 -8 0 -10 -8 -6 -20 3 -11 2 -20 -4 -20 -5 0 -11 10 -13 22
-4 29 -24 34 -31 7 -5 -19 -8 -20 -22 -9 -11 9 -12 16 -5 25 8 10 3 15 -21 20
-23 5 -28 10 -18 16 7 4 10 11 7 15 -4 3 -14 -1 -23 -10 -9 -9 -21 -16 -26
-16 -13 0 -33 20 -42 43 -3 9 -14 17 -24 17 -10 0 3 12 30 27 27 15 47 34 47
43 0 18 -31 23 -42 7 -4 -7 -12 -6 -22 2 -8 7 -21 9 -27 5 -9 -5 -10 -2 -6 9
5 14 -4 16 -78 14 -47 -1 -85 2 -85 7 0 4 -21 5 -47 1 -27 -5 -59 -8 -73 -7
-52 1 -71 -8 -68 -31 2 -12 9 -21 16 -19 7 1 19 -12 26 -30 17 -39 2 -83 -23
-72 -9 4 -24 6 -34 6 -10 -1 -16 4 -14 11 3 7 10 11 16 9 6 -1 11 2 11 8 0 5
-7 11 -15 11 -23 2 -29 4 -41 11 -7 5 -11 -4 -12 -24 0 -17 -7 -37 -15 -45
-13 -13 -15 -11 -21 11 -3 14 -15 30 -27 36 -16 9 -18 14 -8 26 10 12 9 13 -5
8 -11 -4 -16 -1 -16 10 0 28 -23 44 -60 41 -19 -1 -28 -1 -18 2 25 6 29 29 8
51 -10 11 -16 23 -13 26 4 3 -2 6 -12 6 -18 0 -18 1 -3 17 9 9 31 16 47 15 24
0 31 4 31 19 0 11 -7 19 -16 19 -10 0 -14 6 -10 15 3 8 2 14 -2 14 -17 -3 -32
2 -32 10 0 4 11 6 24 4 13 -3 27 0 30 6 6 10 36 4 46 -9 3 -4 19 -14 35 -22
17 -8 29 -19 28 -24 -1 -5 20 -10 47 -12 38 -2 49 1 55 15 5 10 7 22 6 27 -1
4 9 6 22 2 16 -4 29 0 37 9 8 9 21 13 32 9 10 -3 25 -1 32 5 10 8 16 7 25 -3
7 -8 20 -12 28 -9 12 5 15 2 10 -10 -3 -9 -2 -19 3 -22 6 -4 10 5 10 20 0 31
37 49 74 35 13 -5 27 -6 30 -3 3 4 13 -2 21 -13 9 -12 18 -15 22 -9 10 12 29
16 111 22 43 3 60 8 55 16 -3 7 3 3 15 -7 12 -11 25 -16 29 -12 4 4 1 11 -7
16 -13 9 -13 10 0 10 8 0 20 -10 25 -22 15 -33 29 -32 70 7 43 40 40 39 66 25z
m399 0 c0 -5 -2 -10 -4 -10 -3 0 -8 5 -11 10 -3 6 -1 10 4 10 6 0 11 -4 11
-10z m-1525 -17 c-4 -10 -7 -26 -7 -35 0 -10 -4 -18 -9 -18 -6 0 -7 -10 -4
-22 l7 -23 -16 22 c-15 20 -15 26 -2 58 8 19 20 35 27 35 7 0 8 -7 4 -17z
m1475 7 c0 -5 -2 -10 -4 -10 -3 0 -8 5 -11 10 -3 6 -1 10 4 10 6 0 11 -4 11
-10z m-230 -34 c0 -8 -4 -18 -10 -21 -5 -3 -10 3 -10 14 0 12 5 21 10 21 6 0
10 -6 10 -14z m-14 -73 c-11 -11 -17 4 -9 23 7 18 8 18 11 1 2 -10 1 -21 -2
-24z m96 -14 c-11 -17 -10 -26 3 -51 18 -38 19 -44 2 -29 -8 6 -17 8 -21 4 -4
-4 -4 0 0 10 3 9 2 17 -4 17 -5 0 -12 -9 -15 -20 -3 -12 0 -20 8 -20 18 0 26
-26 15 -52 -7 -18 -9 -19 -9 -5 -1 18 -21 25 -21 6 0 -5 -5 -7 -11 -4 -6 4 -7
14 -4 24 4 9 8 36 10 60 2 28 9 47 19 53 9 5 16 19 16 30 0 17 3 19 12 10 10
-10 10 -17 0 -33z m238 12 c0 -17 -12 -41 -21 -41 -10 0 -12 33 -2 43 9 10 23
9 23 -2z m88 -34 c2 -9 -1 -17 -7 -17 -6 0 -11 7 -11 16 0 9 -5 12 -12 8 -7
-4 -8 -3 -4 5 10 16 30 9 34 -12z m62 -17 c0 -11 -4 -20 -10 -20 -5 0 -10 9
-10 20 0 11 5 20 10 20 6 0 10 -9 10 -20z m-180 -5 c11 -13 10 -14 -4 -9 -9 3
-16 10 -16 15 0 13 6 11 20 -6z m90 -19 c0 -8 3 -22 7 -32 4 -11 3 -15 -4 -11
-13 8 -23 57 -12 57 5 0 9 -6 9 -14z m-230 -33 c0 -7 -4 -13 -10 -13 -5 0 -10
12 -10 28 0 21 2 24 10 12 5 -8 10 -21 10 -27z m99 -13 c0 -9 -4 -8 -9 5 -5
11 -9 27 -9 35 0 9 4 8 9 -5 5 -11 9 -27 9 -35z m-22 -65 c9 -25 -4 -29 -17
-6 -7 15 -7 21 0 21 6 0 13 -7 17 -15z m33 -25 c0 -5 -4 -10 -10 -10 -5 0 -10
5 -10 10 0 6 5 10 10 10 6 0 10 -4 10 -10z m-649 -62 c1 -7 1 -17 -1 -23 -1
-5 4 -4 11 3 20 19 24 15 27 -24 2 -35 1 -36 -25 -30 -25 6 -26 5 -10 -7 24
-19 21 -30 -5 -22 -18 5 -20 4 -8 -4 8 -6 11 -11 6 -11 -5 0 -2 -7 5 -17 13
-15 12 -15 -6 -6 -28 15 -37 16 -44 4 -12 -19 -29 4 -24 31 3 15 9 26 13 23 4
-2 5 7 2 21 -2 14 -11 28 -19 31 -20 8 3 23 35 23 12 0 22 5 22 10 0 15 20 12
21 -2z m229 -50 c0 -18 -26 5 -27 23 -2 21 -1 21 12 3 8 -11 15 -22 15 -26z
m47 -54 c-7 -7 -47 14 -47 25 0 19 15 19 33 0 10 -11 17 -23 14 -25z m-374 12
c4 -9 -2 -13 -18 -13 -19 0 -21 2 -12 13 15 17 24 17 30 0z m-945 -49 c22 -23
22 -24 2 -22 -26 2 -44 20 -36 34 9 15 9 15 34 -12z m961 -6 c7 -5 11 -13 7
-19 -3 -6 -2 -13 4 -17 5 -3 10 -11 10 -18 0 -6 -11 4 -25 23 -14 19 -25 35
-25 37 0 6 15 3 29 -6z m-192 -7 c-3 -3 -12 -4 -19 -1 -8 3 -5 6 6 6 11 1 17
-2 13 -5z m279 -30 c-1 -26 -8 -29 -36 -14 -25 13 -16 35 14 36 19 1 23 -3 22
-22z m231 9 c-4 -3 0 -17 8 -30 20 -29 9 -30 -15 -1 -13 17 -15 25 -7 30 15
10 22 10 14 1z m-142 -12 c3 -5 1 -12 -5 -16 -5 -3 -10 1 -10 9 0 18 6 21 15
7z m80 -1 c3 -5 2 -10 -4 -10 -5 0 -13 5 -16 10 -3 6 -2 10 4 10 5 0 13 -4 16
-10z m-5 -111 c0 -14 -39 -17 -44 -3 -3 8 -1 14 4 14 6 0 9 3 9 8 -4 21 3 25
16 8 8 -11 15 -23 15 -27z m-1085 -109 c3 -5 1 -10 -4 -10 -6 0 -11 5 -11 10
0 6 2 10 4 10 3 0 8 -4 11 -10z m35 -71 c0 -6 -4 -7 -10 -4 -5 3 -10 11 -10
16 0 6 5 7 10 4 6 -3 10 -11 10 -16z m130 -210 c0 -6 -4 -7 -10 -4 -5 3 -10
11 -10 16 0 6 5 7 10 4 6 -3 10 -11 10 -16z"/>
<path d="M2340 4039 c0 -5 5 -7 10 -4 6 3 10 8 10 11 0 2 -4 4 -10 4 -5 0 -10
-5 -10 -11z"/>
<path d="M2017 3954 c-10 -10 15 -54 30 -54 8 0 12 6 9 13 -3 6 -9 20 -12 30
-6 17 -16 22 -27 11z"/>
<path d="M2945 3940 c3 -5 8 -10 11 -10 2 0 4 5 4 10 0 6 -5 10 -11 10 -5 0
-7 -4 -4 -10z"/>
<path d="M1965 3840 c3 -5 8 -10 11 -10 2 0 4 5 4 10 0 6 -5 10 -11 10 -5 0
-7 -4 -4 -10z"/>
<path d="M2543 3843 c-7 -3 -13 -8 -13 -12 0 -9 37 -8 45 1 8 8 -17 16 -32 11z"/>
<path d="M3307 3595 c-6 -15 22 -30 34 -18 5 5 0 14 -10 20 -15 10 -20 9 -24
-2z"/>
<path d="M3149 3086 c-2 -2 -35 -7 -74 -11 -38 -4 -84 -8 -102 -10 -53 -5
-171 -28 -182 -34 -6 -4 -12 -21 -14 -39 -2 -18 -7 -35 -10 -39 -15 -14 -6
-23 23 -23 39 0 38 -12 -5 -47 -19 -16 -44 -49 -56 -72 -21 -45 -19 -62 5 -42
11 9 15 8 20 -4 3 -9 2 -13 -4 -10 -6 3 -10 2 -10 -4 0 -5 5 -13 10 -16 18
-11 10 -25 -15 -25 -30 0 -34 -20 -6 -27 17 -4 18 -8 8 -25 -9 -16 -9 -22 1
-25 6 -3 12 -14 12 -24 0 -11 4 -18 9 -15 4 3 16 -3 26 -14 12 -13 31 -20 57
-20 32 0 46 7 78 40 25 25 45 38 54 34 9 -3 16 -1 16 5 0 6 -4 11 -10 11 -25
0 -6 20 24 26 43 7 64 30 80 83 l12 40 29 -24 c26 -20 28 -26 18 -43 -19 -32
-1 -44 50 -37 l46 7 -21 32 c-21 31 -122 103 -168 120 -58 21 -65 42 -12 41
51 -1 127 -40 160 -82 55 -72 70 -88 78 -81 10 11 -9 49 -48 93 -57 66 -180
109 -303 106 -80 -1 -9 19 96 27 116 10 179 6 216 -13 14 -8 33 -11 42 -7 14
6 14 7 -1 10 -10 2 -18 7 -18 12 0 4 9 6 20 3 21 -6 23 -3 14 21 -3 8 -11 13
-18 10 -7 -3 -18 2 -25 10 -10 12 -8 14 11 10 16 -3 14 -1 -7 8 -55 24 -76 39
-69 51 4 7 4 9 -1 5 -4 -4 -13 -3 -20 2 -7 5 -14 8 -16 6z m-119 -316 c0 -11
-7 -20 -15 -20 -8 0 -15 9 -15 20 0 11 7 20 15 20 8 0 15 -9 15 -20z m-157
-54 c4 -10 1 -13 -9 -9 -7 3 -14 9 -14 14 0 14 17 10 23 -5z"/>
<path d="M1660 3033 l-25 -14 33 4 32 4 -21 -23 c-12 -13 -25 -21 -29 -19 -11
7 -27 -16 -36 -50 -4 -17 -12 -34 -18 -38 -6 -5 23 -5 64 -1 41 4 89 8 105 7
17 0 24 2 18 4 -7 3 -13 8 -13 12 0 7 17 8 54 2 20 -3 -19 -31 -44 -31 -15 0
-33 -7 -40 -15 -7 -8 -16 -15 -21 -15 -17 0 -79 -67 -94 -102 -19 -46 -19 -52
0 -44 8 3 15 1 15 -4 0 -6 -4 -10 -10 -10 -5 0 -10 -5 -10 -10 0 -17 50 1 75
26 26 26 54 31 73 12 8 -8 12 -8 12 -1 0 6 -7 16 -15 23 -11 9 -12 17 -4 32 9
17 65 58 80 58 4 0 4 -20 1 -45 -3 -31 0 -52 11 -68 8 -13 17 -32 19 -43 5
-28 26 -46 54 -46 13 0 24 -4 24 -8 0 -18 -13 -40 -24 -40 -6 0 -17 -9 -24
-20 -11 -17 -9 -20 16 -26 30 -8 54 -33 47 -51 -2 -6 3 -17 11 -23 8 -7 14 -8
14 -4 0 17 41 36 54 25 17 -15 89 37 81 58 -5 13 -4 14 6 4 18 -18 30 -16 23
2 -4 9 0 15 9 15 10 0 13 7 10 20 -4 13 0 20 9 20 16 0 16 34 0 85 -5 17 -7
56 -4 88 4 51 2 57 -14 57 -23 0 -71 36 -62 45 3 4 24 9 46 12 32 4 39 9 35
24 -3 10 -14 21 -24 24 -10 4 -19 12 -19 18 0 18 -71 36 -164 42 -43 3 -103
12 -133 20 -29 8 -60 12 -68 8 -9 -3 -21 -1 -28 4 -18 14 -59 12 -87 -4z m351
-246 c-1 -4 -1 -14 -1 -22 0 -8 -4 -15 -10 -15 -5 0 -10 12 -10 26 0 14 5 24
11 22 6 -2 10 -7 10 -11z m-123 -14 c-4 -22 -22 -20 -26 1 -2 10 3 16 13 16
10 0 15 -7 13 -17z"/>
<path d="M2699 2993 c-13 -16 -12 -17 4 -4 16 13 21 21 13 21 -2 0 -10 -8 -17
-17z"/>
<path d="M2656 2955 c-3 -8 -1 -15 4 -15 13 0 22 18 11 24 -5 3 -11 -1 -15 -9z"/>
<path d="M3158 2943 c7 -3 16 -2 19 1 4 3 -2 6 -13 5 -11 0 -14 -3 -6 -6z"/>
<path d="M3305 2931 c-3 -5 -1 -12 5 -16 5 -3 10 1 10 9 0 18 -6 21 -15 7z"/>
<path d="M1981 2041 c-16 -10 -7 -47 14 -55 13 -5 20 5 16 27 0 4 4 7 10 7 8
0 8 5 -1 15 -14 17 -20 18 -39 6z"/>
<path d="M2538 1975 c-40 -22 -34 -35 15 -35 47 0 73 -12 63 -29 -11 -17 30
-13 48 5 21 20 20 27 -3 48 -27 24 -90 30 -123 11z"/>
<path d="M3473 1885 c11 -23 27 -34 27 -17 -1 9 -26 42 -33 42 -3 0 0 -11 6
-25z"/>
<path d="M3404 1855 c-4 -9 0 -24 10 -33 15 -15 16 -14 16 10 0 32 -17 46 -26
23z"/>
<path d="M1530 1814 c0 -8 5 -12 10 -9 6 4 8 11 5 16 -9 14 -15 11 -15 -7z"/>
<path d="M3465 1820 c3 -5 8 -10 11 -10 2 0 4 5 4 10 0 6 -5 10 -11 10 -5 0
-7 -4 -4 -10z"/>
<path d="M3391 1774 c0 -11 3 -14 6 -6 3 7 2 16 -1 19 -3 4 -6 -2 -5 -13z"/>
<path d="M3384 1736 c-3 -8 -4 -25 -1 -38 3 -17 5 -15 6 10 1 22 5 31 13 26 7
-4 8 -3 4 4 -10 16 -15 15 -22 -2z"/>
<path d="M3421 1727 c-16 -20 -5 -77 15 -77 8 0 14 -4 14 -10 0 -5 5 -10 10
-10 6 0 10 14 10 30 0 17 -4 30 -9 30 -5 0 -13 12 -18 26 -8 23 -10 24 -22 11z"/>
<path d="M3282 1660 c0 -14 2 -19 5 -12 2 6 2 18 0 25 -3 6 -5 1 -5 -13z"/>
<path d="M3480 1660 c0 -5 5 -10 10 -10 6 0 10 5 10 10 0 6 -4 10 -10 10 -5 0
-10 -4 -10 -10z"/>
<path d="M2612 1648 c6 -18 28 -21 28 -4 0 9 -7 16 -16 16 -9 0 -14 -5 -12
-12z"/>
<path d="M2107 1265 c-8 -20 -4 -29 11 -24 5 2 6 13 2 23 -6 19 -7 19 -13 1z"/>
<path d="M2030 1245 c0 -8 5 -15 10 -15 6 0 10 7 10 15 0 8 -4 15 -10 15 -5 0
-10 -7 -10 -15z"/>
<path d="M2927 1216 c10 -13 24 -21 32 -18 11 4 9 10 -9 24 -31 25 -44 22 -23
-6z"/>
<path d="M2550 1190 c0 -5 5 -10 11 -10 5 0 7 5 4 10 -3 6 -8 10 -11 10 -2 0
-4 -4 -4 -10z"/>
<path d="M2722 1135 c-11 -13 -9 -15 12 -13 19 2 22 5 14 15 -12 15 -10 16
-26 -2z"/>
<path d="M3059 4775 c42 -19 46 -19 27 0 -8 8 -25 15 -38 15 -20 -1 -18 -3 11
-15z"/>
<path d="M906 3325 c4 -8 8 -15 10 -15 2 0 4 7 4 15 0 8 -4 15 -10 15 -5 0 -7
-7 -4 -15z"/>
<path d="M907 3258 c8 -47 14 -49 11 -5 -1 20 -6 37 -10 37 -4 0 -5 -15 -1
-32z"/>
<path d="M3933 2729 c-7 -7 -8 -21 0 -45 8 -25 6 -59 -6 -136 -22 -133 -21
-154 2 -102 20 45 46 144 57 217 8 62 -20 99 -53 66z"/>
<path d="M1443 1055 c-38 -16 -103 -61 -153 -105 -26 -23 -29 -28 -10 -18 14
7 27 16 30 19 5 5 112 78 138 93 6 4 12 5 12 1 0 -3 -33 -26 -72 -52 -128 -82
-227 -197 -252 -293 -5 -18 -1 -15 13 11 11 19 27 41 36 49 17 14 17 15 -49
-145 -25 -62 -99 -353 -86 -338 10 10 70 198 70 218 0 18 46 111 58 119 5 3 1
-20 -9 -52 -9 -31 -27 -91 -39 -132 -32 -109 -58 -186 -90 -260 -35 -79 -53
-170 -35 -170 7 0 20 30 30 67 17 62 29 94 70 188 18 42 51 141 66 198 6 26
13 46 15 44 10 -10 -31 -187 -62 -269 -68 -178 -83 -229 -67 -226 8 2 23 26
32 53 56 155 86 231 92 235 4 3 14 21 22 40 10 24 15 28 15 15 0 -25 -26 -95
-28 -75 -1 8 -8 -12 -15 -46 -7 -33 -27 -93 -44 -133 -35 -83 -37 -91 -17 -91
9 0 25 29 40 73 22 62 25 66 22 32 -2 -22 -8 -55 -14 -72 -6 -18 -7 -33 -2
-33 12 0 28 55 35 127 4 34 13 84 20 110 l13 48 1 -100 c0 -55 -4 -119 -8
-142 l-8 -43 228 0 c131 0 229 4 229 9 0 5 -19 33 -42 63 -23 29 -41 55 -39
58 1 2 -5 7 -14 10 -9 3 -16 9 -16 13 1 4 -5 18 -14 30 -22 34 -55 172 -55
231 0 28 -7 65 -16 81 -27 53 -64 195 -64 249 0 28 14 101 31 161 24 87 41
167 35 165 -1 -1 -16 -7 -33 -15z m-246 -667 c-3 -7 -5 -2 -5 12 0 14 2 19 5
13 2 -7 2 -19 0 -25z m-10 -230 c-3 -7 -5 -2 -5 12 0 14 2 19 5 13 2 -7 2 -19
0 -25z"/>
<path d="M3377 1043 c-3 -5 -8 -35 -11 -68 -4 -33 -9 -67 -11 -75 -3 -8 -6
-31 -9 -50 -10 -83 -18 -110 -35 -110 -13 0 -13 -2 -2 -9 8 -5 12 -18 8 -30
-4 -15 0 -21 11 -21 11 0 5 -8 -15 -21 -39 -24 -42 -33 -10 -24 14 4 18 3 9
-3 -7 -5 -15 -30 -19 -57 -3 -26 -18 -74 -34 -106 -16 -32 -29 -63 -29 -69 0
-10 -85 -104 -129 -143 -63 -57 -92 -81 -224 -187 l-88 -70 119 0 119 0 27 40
c33 50 46 53 17 4 -12 -19 -21 -37 -21 -40 0 -3 18 -4 41 -2 45 3 39 -4 111
141 23 49 50 92 59 97 9 5 -12 -45 -48 -116 -51 -100 -60 -124 -45 -124 12 0
34 34 72 111 60 121 132 225 182 260 26 19 21 9 -30 -57 -77 -101 -190 -314
-167 -314 9 0 23 12 31 28 8 15 40 73 71 128 30 56 76 127 103 158 70 84 96
139 115 246 30 165 30 196 0 295 -15 50 -32 95 -38 100 -6 7 -8 7 -4 0 3 -6
15 -65 27 -131 l22 -119 -31 -124 c-32 -132 -58 -186 -46 -96 4 28 15 87 26
131 23 99 24 133 4 216 -34 137 -36 143 -68 166 -17 12 -25 22 -17 22 10 0 8
4 -6 15 -22 16 -31 18 -37 8z m100 -244 c4 -41 3 -51 -6 -43 -6 6 -14 35 -18
65 -4 41 -3 51 6 43 6 -6 14 -35 18 -65z m-18 -219 c-17 -100 -31 -150 -41
-150 -15 0 1 118 23 169 11 24 21 42 23 40 2 -2 0 -29 -5 -59z m-84 -157 c-3
-24 -10 -43 -16 -43 -13 0 -11 81 4 121 l12 34 3 -35 c2 -19 1 -54 -3 -77z
m-237 -335 c-23 -46 -43 -77 -45 -71 -6 16 70 153 83 153 2 0 -15 -37 -38 -82z"/>
<path d="M3298 833 c7 -3 16 -2 19 1 4 3 -2 6 -13 5 -11 0 -14 -3 -6 -6z"/>
<path d="M1572 810 c-7 -11 -10 -20 -6 -20 7 0 34 27 34 34 0 13 -16 5 -28
-14z"/>
<path d="M1015 688 c-66 -50 -141 -109 -167 -132 -117 -101 -137 -117 -174
-130 -21 -7 -75 -30 -118 -51 -54 -25 -135 -50 -250 -76 -94 -21 -200 -46
-236 -56 l-65 -18 -3 -101 -3 -101 28 -12 c20 -8 147 -11 442 -9 l415 3 12 45
c13 47 35 106 76 205 37 87 173 514 166 520 -2 1 -57 -38 -123 -87z"/>
<path d="M3650 724 c0 -106 -72 -355 -129 -448 -17 -27 -43 -97 -86 -233 l-14
-43 481 0 c538 0 504 -6 398 66 -175 119 -227 158 -245 183 -39 56 -111 147
-181 231 -39 47 -99 123 -132 171 -33 47 -67 91 -76 98 -14 12 -16 9 -16 -25z"/>
<path d="M2500 425 c-7 -9 -11 -17 -9 -20 3 -2 10 5 17 15 14 24 10 26 -8 5z"/>
<path d="M2372 363 c-37 -5 -73 -56 -53 -76 8 -8 11 -7 11 4 1 28 36 58 60 52
15 -4 21 -2 16 5 -3 6 2 13 11 15 22 6 1 5 -45 0z"/>
<path d="M969 106 c-25 -58 -35 -106 -20 -106 6 0 13 12 17 27 3 16 12 49 19
76 16 59 10 60 -16 3z"/>
<path d="M2565 10 c-3 -5 -1 -10 4 -10 6 0 11 5 11 10 0 6 -2 10 -4 10 -3 0
-8 -4 -11 -10z"/>
<path d="M2760 10 c0 -5 5 -10 11 -10 5 0 7 5 4 10 -3 6 -8 10 -11 10 -2 0 -4
-4 -4 -10z"/>
</g>
</svg>
